<svg xmlns="http://www.w3.org/2000/svg" xmlns:xlink="http://www.w3.org/1999/xlink" width="389.498" height="100.783" viewBox="0 0 389.498 100.783">
  <defs>
    <clipPath id="clip-path">
      <rect id="Rectangle_19" data-name="Rectangle 19" width="74.167" height="74.192" fill="none"/>
    </clipPath>
  </defs>
  <g id="dark-logo" transform="translate(-502.285 -124.246)">
    <g id="Group_11" data-name="Group 11" transform="translate(653.231 145.866)" opacity="0.15">
      <g id="Group_10" data-name="Group 10">
        <g id="Group_9" data-name="Group 9" clip-path="url(#clip-path)">
          <path id="Path_29" data-name="Path 29" d="M36.755,11.541a21.693,21.693,0,0,1,9.915,2.388,6.768,6.768,0,0,0-.295,2.016V50.861a19.183,19.183,0,0,1-9.621,2.559H34.046V11.541Z" transform="translate(-34.048 3.545)" fill="#131313"/>
          <path id="Path_30" data-name="Path 30" d="M76.067,8.623a18.778,18.778,0,0,1-6.178,12.33H41.369a6.622,6.622,0,0,0-1.99.295,21.632,21.632,0,0,1-2.414-9.915V8.623Z" transform="translate(-21.88 -8.622)" fill="#131313"/>
          <path id="Path_31" data-name="Path 31" d="M76.874,20.532a21.512,21.512,0,0,1,2.388,9.895v2.73H37.378V30.447a19.43,19.43,0,0,1,2.533-9.621H74.832a7.094,7.094,0,0,0,2.042-.295" transform="translate(-20.154 41.034)" fill="#131313"/>
          <path id="Path_32" data-name="Path 32" d="M58.554,12.493V51.6H55.871a21.632,21.632,0,0,1-9.915-2.414,6.622,6.622,0,0,0,.295-1.99V18.671a18.49,18.49,0,0,1,12.3-6.178" transform="translate(15.613 7.514)" fill="#131313"/>
        </g>
      </g>
    </g>
    <path id="Path_33" data-name="Path 33" d="M74.055,36.84H65.861a3.579,3.579,0,0,0-3.593,3.593v8.783a21.133,21.133,0,0,0-1.06-6.643A21.372,21.372,0,0,0,40.762,27.736H35.939a2.875,2.875,0,0,1-2.854-2.88V10.537a2.875,2.875,0,0,1,2.854-2.88h14.32a2.88,2.88,0,0,1,2.879,2.88V15.36A21.514,21.514,0,0,0,74.055,36.84" transform="translate(615.176 133.215)" fill="#131313"/>
    <path id="Path_34" data-name="Path 34" d="M74.623,28.256a21.108,21.108,0,0,0-6.643,1.06,21.462,21.462,0,0,0-14.842,20.42v4.849a2.857,2.857,0,0,1-2.874,2.854H35.939a2.856,2.856,0,0,1-2.854-2.854V40.239a2.856,2.856,0,0,1,2.854-2.854h4.823A21.458,21.458,0,0,0,61.213,22.522,21.125,21.125,0,0,0,62.268,15.9v8.788a3.576,3.576,0,0,0,3.593,3.567Z" transform="translate(615.176 167.586)" fill="#131313"/>
    <path id="Path_35" data-name="Path 35" d="M83.717,39.7V54.048A2.856,2.856,0,0,1,80.863,56.9H66.543a2.858,2.858,0,0,1-2.879-2.854V49.2a21.369,21.369,0,0,0-14.842-20.42,28.226,28.226,0,0,0-7.7-1.06h9.869a3.57,3.57,0,0,0,3.567-3.495V16.03a21.187,21.187,0,0,0,3.913,11.689,21.392,21.392,0,0,0,17.572,9.13h4.823A2.856,2.856,0,0,1,83.717,39.7" transform="translate(648.675 168.128)" fill="#131313"/>
    <rect id="Rectangle_20" data-name="Rectangle 20" width="4.301" height="4.301" transform="translate(701.716 128.547)" fill="#62af31"/>
    <path id="Path_36" data-name="Path 36" d="M101.723,9.688V28.314a3.583,3.583,0,0,1-3.583,3.577H90.3A25.748,25.748,0,0,0,64.517,57.347v.062c-.005.088-.005.181-.005.274v7.93A3.573,3.573,0,0,1,60.94,69.1H42.314a3.58,3.58,0,0,1-3.583-3.577V46.9a3.581,3.581,0,0,1,3.583-3.583h8.768c-.186,0-.367,0-.553-.005a25.6,25.6,0,0,0,8.246-1.473A25.79,25.79,0,0,0,75.932,17.53V9.688A3.584,3.584,0,0,1,79.515,6.1H98.141a3.584,3.584,0,0,1,3.583,3.583" transform="translate(638.718 126.744)" fill="#62af31"/>
    <rect id="Rectangle_21" data-name="Rectangle 21" width="4.301" height="4.301" transform="translate(706.017 132.848)" fill="#62af31"/>
    <rect id="Rectangle_22" data-name="Rectangle 22" width="4.301" height="4.301" transform="translate(744.748 124.246)" fill="#62af31"/>
    <rect id="Rectangle_23" data-name="Rectangle 23" width="4.301" height="4.301" transform="translate(706.017 124.246)" fill="#62af31"/>
    <rect id="Rectangle_24" data-name="Rectangle 24" width="4.343" height="4.343" transform="translate(740.426 167.325)" fill="#62af31"/>
    <rect id="Rectangle_25" data-name="Rectangle 25" width="4.343" height="4.343" transform="translate(736.084 162.982)" fill="#62af31"/>
    <rect id="Rectangle_26" data-name="Rectangle 26" width="4.343" height="4.343" transform="translate(731.674 167.325)" fill="#62af31"/>
    <path id="Path_37" data-name="Path 37" d="M41.7,36.942V40.9a8.353,8.353,0,0,1-1.256,4.451,9.886,9.886,0,0,1-3.262,3.293A8.188,8.188,0,0,1,32.8,49.887H4.848v-10.3H26.493a2.279,2.279,0,0,0,1.4-.367,1.124,1.124,0,0,0,.465-.879v-.517a.992.992,0,0,0-.465-.724,3.663,3.663,0,0,0-1.251-.595L12.809,33.943a9.353,9.353,0,0,1-4.125-1.68,9.309,9.309,0,0,1-2.833-3.174,8.03,8.03,0,0,1-1-3.908V21.241a9,9,0,0,1,4.4-7.8,8.551,8.551,0,0,1,4.415-1.2H41.7V22.627H19.752a2.675,2.675,0,0,0-1.251.248.879.879,0,0,0-.465.837v.512a1.084,1.084,0,0,0,.429.874,2.533,2.533,0,0,0,1.22.522l13.906,2.631A9.877,9.877,0,0,1,37.784,29.9a9.327,9.327,0,0,1,2.869,3.138A7.884,7.884,0,0,1,41.7,36.942" transform="translate(497.437 152.329)" fill="#131313"/>
    <path id="Path_38" data-name="Path 38" d="M13.333,59.708V9.883H26.092V35.762h6.958l8.168-13.694h12.19v5.738L44.015,40.854l9.393,13.121v5.733H41.653l-8.535-13.26H26.092v13.26Z" transform="translate(532.819 142.497)" fill="#131313"/>
    <path id="Path_39" data-name="Path 39" d="M63.389,12.24v5.738L51.121,50.315A26,26,0,0,1,48.045,56.2a11.907,11.907,0,0,1-4.415,3.7,14.492,14.492,0,0,1-6.416,1.318H22.45V49.886H36.418l-.481-1.122L22.45,17.978V12.24H34.93l8.6,23.729h.646l7.1-23.729Z" transform="translate(570.832 152.325)" fill="#131313"/>
    <path id="Path_40" data-name="Path 40" d="M93.69,33.14v27.6H81V36.722a2.256,2.256,0,0,0-.641-1.685,2.535,2.535,0,0,0-1.8-.61H67.232V60.74H54.468V10.91H67.232v12.2H83.651a9.847,9.847,0,0,1,5.092,1.365,10.035,10.035,0,0,1,3.619,3.619A9.735,9.735,0,0,1,93.69,33.14" transform="translate(704.336 146.779)" fill="#131313"/>
    <path id="Path_41" data-name="Path 41" d="M73.527,50.919A9.95,9.95,0,0,1,68.4,49.59a10.116,10.116,0,0,1-3.619-3.619,9.768,9.768,0,0,1-1.36-5.092V13.268H76.179V37.581a2.146,2.146,0,0,0,.61,1.649,2.354,2.354,0,0,0,1.685.574h7.884a4.121,4.121,0,0,0,1.866-.4,2.8,2.8,0,0,0,1.22-1.179,3.872,3.872,0,0,0,.429-1.866V13.268h12.759v37.64H93.456l-1.861-5.154h-.362a9.149,9.149,0,0,1-3.474,3.733,9.4,9.4,0,0,1-4.984,1.432Z" transform="translate(741.663 156.611)" fill="#131313"/>
    <path id="Path_42" data-name="Path 42" d="M111.474,28.009a10.228,10.228,0,0,0-8.778-4.947H93.8a2.988,2.988,0,0,0-.372.016H85.135V10.913H72.371V60.728H102.7a10.05,10.05,0,0,0,5.159-1.323,9.613,9.613,0,0,0,3.619-3.619,9.911,9.911,0,0,0,1.323-5.092V33.1a9.727,9.727,0,0,0-1.323-5.092m-11.5,19.645a2.012,2.012,0,0,1-2.218,2.233H85.135V34.466H97.754a2,2,0,0,1,2.218,2.218Z" transform="translate(778.986 146.792)" fill="#131313"/>
  </g>
</svg>
