<svg xmlns="http://www.w3.org/2000/svg" xmlns:xlink="http://www.w3.org/1999/xlink" width="377.419" height="97.658" viewBox="0 0 377.419 97.658">
  <defs>
    <clipPath id="clip-path">
      <rect id="Rectangle_1" data-name="Rectangle 1" width="71.869" height="71.891" fill="none"/>
    </clipPath>
  </defs>
  <g id="light-logo" transform="translate(-942.476 -280.442)">
    <g id="Group_3" data-name="Group 3" transform="translate(1088.739 301.392)" opacity="0.3">
      <g id="Group_2" data-name="Group 2">
        <g id="Group_1" data-name="Group 1" clip-path="url(#clip-path)">
          <path id="Path_1" data-name="Path 1" d="M124.545,42.722a21.02,21.02,0,0,1,9.608,2.314,6.557,6.557,0,0,0-.286,1.954V80.823a18.588,18.588,0,0,1-9.322,2.48H121.92V42.722Z" transform="translate(-121.92 -28.105)" fill="#fff"/>
          <path id="Path_2" data-name="Path 2" d="M162.729,39.8a18.2,18.2,0,0,1-5.986,11.947H129.106a6.416,6.416,0,0,0-1.929.286,20.961,20.961,0,0,1-2.339-9.608V39.8Z" transform="translate(-110.221 -39.804)" fill="#fff"/>
          <path id="Path_3" data-name="Path 3" d="M163.523,51.713a20.845,20.845,0,0,1,2.314,9.588v2.645H125.252V61.321A18.828,18.828,0,0,1,127.707,52h33.838a6.874,6.874,0,0,0,1.979-.286" transform="translate(-108.561 7.943)" fill="#fff"/>
          <path id="Path_4" data-name="Path 4" d="M146.038,43.674V81.565h-2.6a20.96,20.96,0,0,1-9.608-2.339,6.417,6.417,0,0,0,.285-1.929V49.66a17.917,17.917,0,0,1,11.922-5.986" transform="translate(-74.169 -24.288)" fill="#fff"/>
        </g>
      </g>
    </g>
    <rect id="Rectangle_3" data-name="Rectangle 3" width="4.173" height="4.173" transform="translate(1135.716 284.605)" fill="#62af31"/>
    <path id="Path_5" data-name="Path 5" d="M187.644,40.757V58.806a3.472,3.472,0,0,1-3.471,3.466h-7.6a24.949,24.949,0,0,0-24.982,24.666V87c-.005.085-.005.175-.005.266v7.684a3.462,3.462,0,0,1-3.461,3.381H130.076a3.469,3.469,0,0,1-3.471-3.466V76.815a3.47,3.47,0,0,1,3.471-3.471h8.5c-.18,0-.356,0-.536-.005a24.951,24.951,0,0,0,24.616-24.982v-7.6a3.473,3.473,0,0,1,3.472-3.471h18.049a3.473,3.473,0,0,1,3.471,3.471" transform="translate(985.603 251.492)" fill="#62af31"/>
    <rect id="Rectangle_4" data-name="Rectangle 4" width="4.168" height="4.168" transform="translate(1139.889 288.783)" fill="#62af31"/>
    <rect id="Rectangle_5" data-name="Rectangle 5" width="4.168" height="4.168" transform="translate(1177.419 280.442)" fill="#62af31"/>
    <rect id="Rectangle_6" data-name="Rectangle 6" width="4.168" height="4.168" transform="translate(1139.889 280.442)" fill="#62af31"/>
    <rect id="Rectangle_7" data-name="Rectangle 7" width="4.208" height="4.208" transform="translate(1173.231 322.185)" fill="#62af31"/>
    <rect id="Rectangle_8" data-name="Rectangle 8" width="4.208" height="4.208" transform="translate(1169.023 317.977)" fill="#62af31"/>
    <rect id="Rectangle_9" data-name="Rectangle 9" width="4.208" height="4.208" transform="translate(1164.75 322.185)" fill="#62af31"/>
    <path id="Path_6" data-name="Path 6" d="M160.658,67.116h-7.94a3.468,3.468,0,0,0-3.482,3.481v8.511a20.476,20.476,0,0,0-1.027-6.437A20.71,20.71,0,0,0,128.4,58.294h-4.674a2.786,2.786,0,0,1-2.765-2.79V41.628a2.786,2.786,0,0,1,2.765-2.79H137.6a2.791,2.791,0,0,1,2.79,2.79V46.3a20.846,20.846,0,0,0,20.268,20.814" transform="translate(962.966 257.715)" fill="#fff"/>
    <path id="Path_7" data-name="Path 7" d="M161.209,59.054a20.454,20.454,0,0,0-6.437,1.027A20.792,20.792,0,0,0,140.4,79.868v4.7a2.773,2.773,0,0,1-2.79,2.765H123.724a2.767,2.767,0,0,1-2.765-2.765v-13.9a2.767,2.767,0,0,1,2.765-2.765H128.4a20.792,20.792,0,0,0,19.817-14.4,20.469,20.469,0,0,0,1.022-6.417V55.6a3.466,3.466,0,0,0,3.482,3.456Z" transform="translate(962.966 290.768)" fill="#fff"/>
    <path id="Path_8" data-name="Path 8" d="M170.27,70.149v13.9a2.767,2.767,0,0,1-2.765,2.765H153.629a2.77,2.77,0,0,1-2.79-2.765v-4.7a20.706,20.706,0,0,0-14.382-19.787,27.351,27.351,0,0,0-7.464-1.027h9.563a3.459,3.459,0,0,0,3.456-3.386v-7.94A20.53,20.53,0,0,0,145.8,58.537a20.729,20.729,0,0,0,17.027,8.846H167.5a2.767,2.767,0,0,1,2.765,2.765" transform="translate(995.177 291.285)" fill="#fff"/>
    <path id="Path_9" data-name="Path 9" d="M128.429,67.357v3.832a8.094,8.094,0,0,1-1.217,4.313,9.58,9.58,0,0,1-3.161,3.191,7.934,7.934,0,0,1-4.243,1.207H92.722V69.916H113.7a2.209,2.209,0,0,0,1.358-.356,1.089,1.089,0,0,0,.451-.852v-.5a.961.961,0,0,0-.451-.7,3.549,3.549,0,0,0-1.212-.576l-13.405-2.48a9.346,9.346,0,0,1-6.743-4.7,7.781,7.781,0,0,1-.972-3.787V52.143a8.717,8.717,0,0,1,4.268-7.554,8.286,8.286,0,0,1,4.278-1.167h27.161V53.486H107.164a2.592,2.592,0,0,0-1.212.24.851.851,0,0,0-.451.811v.5a1.05,1.05,0,0,0,.416.847,2.455,2.455,0,0,0,1.182.506l13.475,2.55a9.571,9.571,0,0,1,4.063,1.593,9.038,9.038,0,0,1,2.78,3.041,7.639,7.639,0,0,1,1.012,3.787" transform="translate(849.754 276.094)" fill="#fff"/>
    <path id="Path_10" data-name="Path 10" d="M101.207,89.344V41.064h12.363V66.141h6.743l7.915-13.27H140.04v5.56l-9.1,12.644,9.1,12.714v5.555H128.649L120.378,76.5h-6.808V89.344Z" transform="translate(883.775 266.64)" fill="#fff"/>
    <path id="Path_11" data-name="Path 11" d="M149.993,43.421v5.56L138.106,80.315a25.155,25.155,0,0,1-2.981,5.7,11.539,11.539,0,0,1-4.278,3.582,13.973,13.973,0,0,1-6.217,1.282H110.324V79.9h13.535l-.466-1.092L110.324,48.981v-5.56h12.093l8.331,22.993h.626l6.878-22.993Z" transform="translate(920.326 276.09)" fill="#fff"/>
    <path id="Path_12" data-name="Path 12" d="M180.348,63.636V90.381h-12.3V67.108a2.178,2.178,0,0,0-.621-1.633,2.434,2.434,0,0,0-1.743-.591H154.71v25.5H142.342V42.091H154.71V53.908h15.91a9.542,9.542,0,0,1,4.934,1.322,9.816,9.816,0,0,1,3.512,3.507,9.509,9.509,0,0,1,1.282,4.9" transform="translate(1048.698 270.757)" fill="#fff"/>
    <path id="Path_13" data-name="Path 13" d="M161.087,80.932a9.641,9.641,0,0,1-4.969-1.287,9.8,9.8,0,0,1-3.507-3.507,9.464,9.464,0,0,1-1.317-4.934V44.449h12.363V68.008a2.08,2.08,0,0,0,.591,1.6,2.28,2.28,0,0,0,1.633.556h7.639a3.994,3.994,0,0,0,1.808-.386,2.694,2.694,0,0,0,1.182-1.147,3.718,3.718,0,0,0,.416-1.8V44.449H189.29V80.922H180.4l-1.8-4.994h-.351a8.865,8.865,0,0,1-3.366,3.617,9.1,9.1,0,0,1-4.829,1.388Z" transform="translate(1084.589 280.211)" fill="#fff"/>
    <path id="Path_14" data-name="Path 14" d="M198.136,58.66a9.911,9.911,0,0,0-8.506-4.794h-8.621a2.9,2.9,0,0,0-.361.015h-8.035V42.094H160.245v48.27H189.63a9.738,9.738,0,0,0,5-1.282,9.315,9.315,0,0,0,3.507-3.507,9.6,9.6,0,0,0,1.282-4.934V63.594a9.426,9.426,0,0,0-1.282-4.934M186.99,77.7a1.949,1.949,0,0,1-2.149,2.164H172.613V64.917h12.228a1.935,1.935,0,0,1,2.149,2.149Z" transform="translate(1120.477 270.769)" fill="#fff"/>
    <g id="Group_8" data-name="Group 8" transform="translate(1088.739 301.392)" opacity="0.3">
      <g id="Group_7" data-name="Group 7">
        <g id="Group_6" data-name="Group 6" clip-path="url(#clip-path)">
          <path id="Path_15" data-name="Path 15" d="M124.545,42.722a21.02,21.02,0,0,1,9.608,2.314,6.557,6.557,0,0,0-.286,1.954V80.823a18.588,18.588,0,0,1-9.322,2.48H121.92V42.722Z" transform="translate(-121.92 -28.105)" fill="#fff"/>
          <path id="Path_16" data-name="Path 16" d="M162.729,39.8a18.2,18.2,0,0,1-5.986,11.947H129.106a6.416,6.416,0,0,0-1.929.286,20.961,20.961,0,0,1-2.339-9.608V39.8Z" transform="translate(-110.221 -39.804)" fill="#fff"/>
          <path id="Path_17" data-name="Path 17" d="M163.523,51.713a20.845,20.845,0,0,1,2.314,9.588v2.645H125.252V61.321A18.828,18.828,0,0,1,127.707,52h33.838a6.874,6.874,0,0,0,1.979-.286" transform="translate(-108.561 7.943)" fill="#fff"/>
          <path id="Path_18" data-name="Path 18" d="M146.038,43.674V81.565h-2.6a20.96,20.96,0,0,1-9.608-2.339,6.417,6.417,0,0,0,.285-1.929V49.66a17.917,17.917,0,0,1,11.922-5.986" transform="translate(-74.169 -24.288)" fill="#fff"/>
        </g>
      </g>
    </g>
    <rect id="Rectangle_11" data-name="Rectangle 11" width="4.168" height="4.168" transform="translate(1135.721 284.61)" fill="#62af31"/>
    <path id="Path_19" data-name="Path 19" d="M187.644,40.757V58.806a3.472,3.472,0,0,1-3.471,3.466h-7.6a24.949,24.949,0,0,0-24.982,24.666V87c-.005.085-.005.175-.005.266v7.684a3.462,3.462,0,0,1-3.461,3.381H130.076a3.469,3.469,0,0,1-3.471-3.466V76.815a3.47,3.47,0,0,1,3.471-3.471h8.5c-.18,0-.356,0-.536-.005a24.951,24.951,0,0,0,24.616-24.982v-7.6a3.473,3.473,0,0,1,3.472-3.471h18.049a3.473,3.473,0,0,1,3.471,3.471" transform="translate(985.603 251.492)" fill="#62af31"/>
    <rect id="Rectangle_12" data-name="Rectangle 12" width="4.168" height="4.168" transform="translate(1139.889 288.783)" fill="#62af31"/>
    <rect id="Rectangle_13" data-name="Rectangle 13" width="4.168" height="4.168" transform="translate(1177.419 280.442)" fill="#62af31"/>
    <rect id="Rectangle_14" data-name="Rectangle 14" width="4.168" height="4.168" transform="translate(1139.889 280.442)" fill="#62af31"/>
    <rect id="Rectangle_15" data-name="Rectangle 15" width="4.208" height="4.208" transform="translate(1173.231 322.185)" fill="#62af31"/>
    <rect id="Rectangle_16" data-name="Rectangle 16" width="4.208" height="4.208" transform="translate(1169.023 317.977)" fill="#62af31"/>
    <rect id="Rectangle_17" data-name="Rectangle 17" width="4.208" height="4.208" transform="translate(1164.75 322.185)" fill="#62af31"/>
    <path id="Path_20" data-name="Path 20" d="M160.658,67.116h-7.94a3.468,3.468,0,0,0-3.482,3.481v8.511a20.476,20.476,0,0,0-1.027-6.437A20.71,20.71,0,0,0,128.4,58.294h-4.674a2.786,2.786,0,0,1-2.765-2.79V41.628a2.786,2.786,0,0,1,2.765-2.79H137.6a2.791,2.791,0,0,1,2.79,2.79V46.3a20.846,20.846,0,0,0,20.268,20.814" transform="translate(962.966 257.715)" fill="#fff"/>
    <path id="Path_21" data-name="Path 21" d="M161.209,59.054a20.454,20.454,0,0,0-6.437,1.027A20.792,20.792,0,0,0,140.4,79.868v4.7a2.773,2.773,0,0,1-2.79,2.765H123.724a2.767,2.767,0,0,1-2.765-2.765v-13.9a2.767,2.767,0,0,1,2.765-2.765H128.4a20.792,20.792,0,0,0,19.817-14.4,20.469,20.469,0,0,0,1.022-6.417V55.6a3.466,3.466,0,0,0,3.482,3.456Z" transform="translate(962.966 290.768)" fill="#fff"/>
    <path id="Path_22" data-name="Path 22" d="M170.27,70.149v13.9a2.767,2.767,0,0,1-2.765,2.765H153.629a2.77,2.77,0,0,1-2.79-2.765v-4.7a20.706,20.706,0,0,0-14.382-19.787,27.351,27.351,0,0,0-7.464-1.027h9.563a3.459,3.459,0,0,0,3.456-3.386v-7.94A20.53,20.53,0,0,0,145.8,58.537a20.729,20.729,0,0,0,17.027,8.846H167.5a2.767,2.767,0,0,1,2.765,2.765" transform="translate(995.177 291.285)" fill="#fff"/>
    <path id="Path_23" data-name="Path 23" d="M128.429,67.357v3.832a8.094,8.094,0,0,1-1.217,4.313,9.58,9.58,0,0,1-3.161,3.191,7.934,7.934,0,0,1-4.243,1.207H92.722V69.916H113.7a2.209,2.209,0,0,0,1.358-.356,1.089,1.089,0,0,0,.451-.852v-.5a.961.961,0,0,0-.451-.7,3.549,3.549,0,0,0-1.212-.576l-13.405-2.48a9.346,9.346,0,0,1-6.743-4.7,7.781,7.781,0,0,1-.972-3.787V52.143a8.717,8.717,0,0,1,4.268-7.554,8.286,8.286,0,0,1,4.278-1.167h27.161V53.486H107.164a2.592,2.592,0,0,0-1.212.24.851.851,0,0,0-.451.811v.5a1.05,1.05,0,0,0,.416.847,2.455,2.455,0,0,0,1.182.506l13.475,2.55a9.571,9.571,0,0,1,4.063,1.593,9.038,9.038,0,0,1,2.78,3.041,7.639,7.639,0,0,1,1.012,3.787" transform="translate(849.754 276.094)" fill="#fff"/>
    <path id="Path_24" data-name="Path 24" d="M101.207,89.344V41.064h12.363V66.141h6.743l7.915-13.27H140.04v5.56l-9.1,12.644,9.1,12.714v5.555H128.649L120.378,76.5h-6.808V89.344Z" transform="translate(883.775 266.64)" fill="#fff"/>
    <path id="Path_25" data-name="Path 25" d="M149.993,43.421v5.56L138.106,80.315a25.155,25.155,0,0,1-2.981,5.7,11.539,11.539,0,0,1-4.278,3.582,13.973,13.973,0,0,1-6.217,1.282H110.324V79.9h13.535l-.466-1.092L110.324,48.981v-5.56h12.093l8.331,22.993h.626l6.878-22.993Z" transform="translate(920.326 276.09)" fill="#fff"/>
    <path id="Path_26" data-name="Path 26" d="M180.348,63.636V90.381h-12.3V67.108a2.178,2.178,0,0,0-.621-1.633,2.434,2.434,0,0,0-1.743-.591H154.71v25.5H142.342V42.091H154.71V53.908h15.91a9.542,9.542,0,0,1,4.934,1.322,9.816,9.816,0,0,1,3.512,3.507,9.509,9.509,0,0,1,1.282,4.9" transform="translate(1048.698 270.757)" fill="#fff"/>
    <path id="Path_27" data-name="Path 27" d="M161.087,80.932a9.641,9.641,0,0,1-4.969-1.287,9.8,9.8,0,0,1-3.507-3.507,9.464,9.464,0,0,1-1.317-4.934V44.449h12.363V68.008a2.08,2.08,0,0,0,.591,1.6,2.28,2.28,0,0,0,1.633.556h7.639a3.994,3.994,0,0,0,1.808-.386,2.694,2.694,0,0,0,1.182-1.147,3.718,3.718,0,0,0,.416-1.8V44.449H189.29V80.922H180.4l-1.8-4.994h-.351a8.865,8.865,0,0,1-3.366,3.617,9.1,9.1,0,0,1-4.829,1.388Z" transform="translate(1084.589 280.211)" fill="#fff"/>
    <path id="Path_28" data-name="Path 28" d="M198.136,58.66a9.911,9.911,0,0,0-8.506-4.794h-8.621a2.9,2.9,0,0,0-.361.015h-8.035V42.094H160.245v48.27H189.63a9.738,9.738,0,0,0,5-1.282,9.315,9.315,0,0,0,3.507-3.507,9.6,9.6,0,0,0,1.282-4.934V63.594a9.426,9.426,0,0,0-1.282-4.934M186.99,77.7a1.949,1.949,0,0,1-2.149,2.164H172.613V64.917h12.228a1.935,1.935,0,0,1,2.149,2.149Z" transform="translate(1120.477 270.769)" fill="#fff"/>
  </g>
</svg>
